<svg xmlns="http://www.w3.org/2000/svg" fill="#2abe80" viewBox="0 0 18 9"><path d="M17.503 8.027c-.046-.07-.328-.64-1.687-1.812-1.422-1.226-1.23-1.027.482-3.148 1.043-1.291 1.46-2.08 1.33-2.417-.124-.322-.892-.237-.892-.237l-2.55.014s-.19-.024-.331.054a.677.677 0 0 0-.225.255s-.404 1-.943 1.85c-1.137 1.793-1.592 1.887-1.778 1.776-.432-.26-.324-1.043-.324-1.6 0-1.738.284-2.462-.553-2.65C9.754.05 9.55.01 8.841.002 7.93-.007 7.158.005 6.722.203c-.29.132-.515.427-.378.444.17.02.551.095.754.352.262.33.252 1.073.252 1.073s.151 2.046-.35 2.3c-.346.175-.818-.18-1.832-1.809C4.65 1.73 4.257.81 4.257.81s-.075-.172-.21-.264a1.109 1.109 0 0 0-.393-.147L1.228.412S.864.422.73.57C.611.7.72.97.72.97s1.9 4.128 4.05 6.21c1.973 1.907 4.213 1.782 4.213 1.782h1.014s.307-.031.463-.188c.144-.144.139-.414.139-.414s-.02-1.265.612-1.452c.623-.183 1.424 1.223 2.271 1.764.642.41 1.129.32 1.129.32l2.268-.03s1.186-.068.624-.935Z"/></svg>