<svg xmlns="http://www.w3.org/2000/svg" fill="none" viewBox="0 0 14 14"><path fill="#A3A3A3" fill-rule="evenodd" d="M14 6.563A7 7 0 0 0 7.437.014V0h-.875v.015A7 7 0 0 0 .016 6.563H0v.875h.015A7 7 0 0 0 6.563 14h.875A7 7 0 0 0 14 7.437v-.875Zm-3.057 0a11.883 11.883 0 0 0-.291-2.302 8.455 8.455 0 0 0 1.484-.63c.578.875.92 1.885.992 2.932h-2.185Zm-1.39-2.917a7.078 7.078 0 0 0-.517-1.167H9.02C8.566 1.67 8.006 1.137 7.452.954v2.96c.707-.023 1.41-.113 2.1-.268ZM6.562.954v2.969a11.232 11.232 0 0 1-2.1-.268c.136-.404.309-.795.516-1.167.455-.82 1.015-1.35 1.583-1.534Zm0 5.609V4.798a12.128 12.128 0 0 1-2.357-.303c-.156.679-.246 1.371-.269 2.067h2.626Zm0 .875v1.808c-.786.02-1.567.118-2.334.291a10.76 10.76 0 0 1-.292-2.108l2.626.008Zm0 5.597v-2.917c-.702.02-1.4.105-2.086.257.134.392.302.771.502 1.134.455.811 1.015 1.342 1.583 1.526Zm.875 0v-2.917c.701.024 1.4.113 2.085.265-.133.393-.301.772-.502 1.135-.455.814-1.015 1.345-1.584 1.528v-.011Zm0-5.598v1.809a12.25 12.25 0 0 1 2.333.3c.167-.691.264-1.398.291-2.108H7.438Zm0-.877V4.798a12.16 12.16 0 0 0 2.333-.292c.156.68.245 1.372.268 2.068L7.438 6.56Zm2.96-3.136a7.757 7.757 0 0 0 1.167-.493A6.125 6.125 0 0 0 9.322 1.33c.473.633.837 1.34 1.076 2.094ZM4.693 1.33a7.067 7.067 0 0 0-1.076 2.094 7.758 7.758 0 0 1-1.182-.493A6.125 6.125 0 0 1 4.693 1.33ZM3.375 4.261a8.459 8.459 0 0 1-1.485-.63 6.125 6.125 0 0 0-.995 2.932h2.188c.02-.775.118-1.546.292-2.302Zm-.318 3.176c.025.787.13 1.569.315 2.334a8.695 8.695 0 0 0-1.48.624 6.078 6.078 0 0 1-.994-2.957h2.159Zm.571 3.18c-.4.128-.791.29-1.166.48a6.1 6.1 0 0 0 2.23 1.561 7.049 7.049 0 0 1-1.064-2.041Zm5.68 2.053a7.05 7.05 0 0 0 1.064-2.042c.401.13.792.291 1.166.485a6.142 6.142 0 0 1-2.23 1.557Zm1.306-2.89c.51.161 1.004.37 1.476.624.59-.88.939-1.9 1.012-2.958h-2.173a11.59 11.59 0 0 1-.315 2.334Z" clip-rule="evenodd"/></svg>